<svg width="40" height="40" viewBox="0 0 40 40" fill="none" xmlns="http://www.w3.org/2000/svg">
<path d="M33.0484 18.4514C31.1725 17.5168 29.3023 17.5056 29.2233 17.5056H22.635C20.5376 17.5056 18.6311 18.3373 17.2311 19.687V18.0313C17.2311 17.7633 17.2105 17.4998 17.1705 17.243H19.9988C22.0647 17.243 25.1382 15.8793 25.1382 12.1222C25.1382 10.6288 24.6748 9.41147 23.7606 8.50372C22.2829 7.0363 20.2251 6.99066 19.9988 7.0014C17.1651 7.0014 14.8594 9.29828 14.8594 12.1222V13.7176C14.0598 13.2066 13.1101 12.91 12.0917 12.91H8.13865C6.07275 12.91 2.99927 14.2737 2.99927 18.0308C2.99927 19.5242 3.46265 20.7411 4.37683 21.6493C5.84151 23.1042 7.87777 23.1521 8.13281 23.1521H15.1504C14.9614 23.8204 14.8599 24.5255 14.8599 25.2539V33.0004H29.2246C29.4168 33.0004 32.6807 32.9659 34.9361 30.7259C36.3051 29.3662 36.9993 27.5248 36.9993 25.2534C36.9993 21.2587 34.8512 19.3497 33.0493 18.4523L33.0484 18.4514ZM17.2316 12.1226C17.2316 10.6024 18.4731 9.36539 19.9948 9.36539C20.4577 9.37031 22.7661 9.5269 22.7661 12.1226C22.7661 14.7184 20.4541 14.8736 19.9988 14.8799H17.2316V12.1226ZM14.8594 20.7885H8.1346C8.12024 20.7885 6.83786 20.7572 6.05119 19.9756C5.59365 19.5211 5.37139 18.8853 5.37139 18.0313C5.37139 15.4436 7.68335 15.2803 8.13865 15.274H12.0917C13.6179 15.274 14.8594 16.511 14.8594 18.0317V20.7885ZM32.0534 29.9152C30.6758 30.6212 29.2368 30.6364 29.2233 30.6364H17.2311V25.2534C17.2311 22.2846 19.6553 19.8691 22.635 19.8691H29.2188C29.2332 19.8691 30.6732 19.8888 32.0521 20.5975C33.7844 21.4882 34.6267 23.0111 34.6267 25.2525C34.6267 27.4939 33.7852 29.0276 32.0534 29.9152Z" fill="#181818"/>
</svg>
