<svg width="40" height="40" viewBox="0 0 40 40" fill="none" xmlns="http://www.w3.org/2000/svg">
<path d="M19.8766 33.8911C18.4885 33.8911 16.9711 33.3689 15.5081 31.906C14.7925 31.1904 14.2655 30.4189 13.9359 29.6063C13.14 29.2882 12.4103 28.8082 11.8011 28.1989L8.09403 24.4919C8.04921 24.4467 3.64995 19.9448 8.09403 15.5004C8.80958 14.7848 9.58106 14.2578 10.3937 13.9282C10.7118 13.1322 11.1918 12.4026 11.8011 11.7934L15.5081 8.08632C15.6222 7.97225 16.667 6.9578 18.2611 6.42669C19.8277 5.9041 22.1818 5.76892 24.4996 8.08632C25.2151 8.80188 25.7422 9.57336 26.0718 10.386C26.8677 10.7041 27.5974 11.1841 28.2066 11.7934L31.9137 15.5004C32.0277 15.6141 33.0418 16.6593 33.5733 18.2534C34.0955 19.82 34.2314 22.1737 31.9137 24.4915C31.1977 25.2074 30.4266 25.7345 29.614 26.0637C29.2959 26.8597 28.8159 27.5893 28.2066 28.1985L24.4996 31.9056C23.5844 32.8211 21.8629 33.8908 19.8766 33.8908V33.8911ZM15.8633 28.3548L15.8837 28.4248C16.0714 29.0789 16.4755 29.72 17.0851 30.3293C18.2985 31.543 19.5722 31.9163 20.9788 31.4708C22.1181 31.11 22.9185 30.3337 22.9263 30.326L26.6296 26.6226C26.6948 26.5578 26.757 26.4908 26.817 26.423C24.584 26.1252 23.0081 24.5782 22.9222 24.4926L20.0033 21.5737L17.0844 24.4922C17.0703 24.5063 15.76 25.8574 15.7607 27.5545C15.7607 27.8145 15.7918 28.0826 15.8629 28.3552L15.8633 28.3548ZM11.6559 15.8526L11.5751 15.876C10.9207 16.0637 10.28 16.4678 9.67032 17.0774C8.43921 18.3085 8.07255 19.6026 8.54958 21.0337C8.91921 22.143 9.66292 22.9074 9.67032 22.9148L13.3774 26.6219C13.4425 26.6871 13.5088 26.7493 13.5774 26.8097C13.8751 24.5767 15.4222 23.0004 15.5077 22.9152L18.4266 19.9963L15.5077 17.0774C15.4914 17.0615 13.7033 15.3274 11.6555 15.853L11.6559 15.8526ZM24.4981 22.9134C24.5288 22.9434 26.0292 24.3885 27.8485 24.226C28.0159 24.2111 28.1859 24.1826 28.3577 24.1382L28.4329 24.1163C29.087 23.9289 29.7277 23.5248 30.3374 22.9148C31.5507 21.7015 31.9237 20.4282 31.4785 19.0211C31.1177 17.8819 30.3414 17.0815 30.3337 17.0737L26.63 13.3704C26.5648 13.3056 26.4985 13.243 26.43 13.183C26.1322 15.416 24.5851 16.9922 24.4996 17.0774L21.5807 19.9963L24.4981 22.9137V22.9134ZM13.1903 13.57C15.4237 13.8678 16.9996 15.4148 17.0851 15.5004L20.004 18.4193L22.9229 15.5004C22.937 15.4863 24.2474 14.1352 24.2466 12.4382C24.2466 12.1785 24.2159 11.9111 24.1448 11.6389L24.124 11.5674C23.9366 10.9134 23.5322 10.2726 22.9225 9.66299C21.7092 8.44966 20.4355 8.07669 19.0288 8.52188C17.8896 8.88262 17.0892 9.65892 17.0814 9.66669L13.3781 13.37C13.3129 13.4352 13.2507 13.5019 13.1907 13.57H13.1903Z" fill="#181818"/>
</svg>
