<svg width="40" height="40" viewBox="0 0 40 40" fill="none" xmlns="http://www.w3.org/2000/svg">
<mask id="mask0_4999_33010" style="mask-type:alpha" maskUnits="userSpaceOnUse" x="0" y="0" width="40" height="40">
<rect width="40" height="40" fill="#D9D9D9"/>
</mask>
<g mask="url(#mask0_4999_33010)">
<path d="M21.6668 14.4566L18.3334 11.1233V4.99992C18.3334 4.5277 18.4931 4.13186 18.8126 3.81242C19.132 3.49297 19.5279 3.33325 20.0001 3.33325C20.4723 3.33325 20.8681 3.49297 21.1876 3.81242C21.507 4.13186 21.6668 4.5277 21.6668 4.99992V14.4566Z" fill="#181818"/>
<path d="M21.1876 19.5208C20.8681 19.8403 20.4723 20 20.0001 20C19.5279 20 19.132 19.8403 18.8126 19.5208C18.4931 19.2014 18.3334 18.8056 18.3334 18.3333V15.9761L21.482 19.1247C21.4068 19.2677 21.3087 19.3998 21.1876 19.5208Z" fill="#181818"/>
<path d="M25.8543 33.8123C24.0348 34.604 22.0834 34.9998 20.0001 34.9998C17.9168 34.9998 15.9654 34.604 14.1459 33.8123C12.3265 33.0207 10.7431 31.9512 9.39592 30.604C8.0487 29.2568 6.97926 27.6734 6.18759 25.854C5.39592 24.0345 5.00009 22.0832 5.00009 19.9998C5.00009 18.3054 5.27787 16.6595 5.83342 15.0623C6.38898 13.4651 7.19453 11.9998 8.25009 10.6665C8.55565 10.2776 8.94454 10.0901 9.41676 10.104C9.88898 10.1179 10.3056 10.3054 10.6668 10.6665C10.9723 10.972 11.1112 11.347 11.0834 11.7915C11.0556 12.2359 10.9029 12.6526 10.6251 13.0415C9.87509 14.0415 9.30565 15.1387 8.91676 16.3332C8.52787 17.5276 8.33342 18.7498 8.33342 19.9998C8.33342 23.2498 9.46537 26.0068 11.7293 28.2707C13.9931 30.5345 16.7501 31.6665 20.0001 31.6665C22.6717 31.6665 25.0101 30.9016 27.0153 29.3718L29.3597 31.7163C28.3093 32.5538 27.1408 33.2525 25.8543 33.8123Z" fill="#181818"/>
<path d="M30.604 30.604C30.2094 30.9985 29.7948 31.3693 29.3597 31.7163L27.0153 29.3718C27.4495 29.0406 27.8677 28.6735 28.2707 28.2706C28.6737 27.8675 29.0409 27.4488 29.3723 27.0145L31.7167 29.3589C31.3696 29.7942 30.9987 30.2092 30.604 30.604Z" fill="#181818"/>
<path d="M33.5783 26.3682L31.0616 23.8515C31.4649 22.6555 31.6665 21.3717 31.6665 20.0001C31.6665 18.7223 31.479 17.4793 31.104 16.271C30.729 15.0626 30.1387 13.9585 29.3332 12.9585C29.0554 12.5973 28.9026 12.2015 28.8748 11.771C28.847 11.3404 28.9859 10.9723 29.2915 10.6668C29.6248 10.3335 30.0276 10.1598 30.4998 10.146C30.972 10.1321 31.3609 10.3057 31.6665 10.6668C32.7498 12.0001 33.5762 13.4585 34.1457 15.0418C34.7151 16.6251 34.9998 18.2779 34.9998 20.0001C34.9998 22.0835 34.604 24.0348 33.8123 25.8543C33.7368 26.0277 33.6589 26.199 33.5783 26.3682Z" fill="#181818"/>
<path d="M35.3209 35.3204C34.67 35.9713 33.6147 35.9713 32.9638 35.3204L4.67956 7.03616C4.02869 6.38529 4.02869 5.33001 4.67956 4.67914C5.33044 4.02826 6.38571 4.02827 7.03659 4.67914L35.3209 32.9634C35.9717 33.6143 35.9717 34.6696 35.3209 35.3204Z" fill="#181818"/>
</g>
</svg>
