<svg width="40" height="40" viewBox="0 0 40 40" fill="none" xmlns="http://www.w3.org/2000/svg">
<mask id="mask0_4317_66068" style="mask-type:alpha" maskUnits="userSpaceOnUse" x="0" y="0" width="40" height="40">
<rect width="40" height="40" fill="#D9D9D9"/>
</mask>
<g mask="url(#mask0_4317_66068)">
<path d="M20 21.3149C21.3889 21.3149 22.5694 21.8011 23.5417 22.7733C24.5139 23.7455 25 24.9261 25 26.3149C25 27.7038 24.5139 28.8844 23.5417 29.8566C22.5694 30.8288 21.3889 31.3149 20 31.3149C18.6111 31.3149 17.4306 30.8288 16.4583 29.8566C15.4861 28.8844 15 27.7038 15 26.3149C15 24.9261 15.4861 23.7455 16.4583 22.7733C17.4306 21.8011 18.6111 21.3149 20 21.3149ZM31.6667 16.3149C32.5833 16.3149 33.3681 16.6413 34.0208 17.2941C34.6736 17.9469 35 18.7316 35 19.6483L35 32.9816C35 33.8983 34.6736 34.683 34.0208 35.3358C33.3681 35.9886 32.5833 36.3149 31.6667 36.3149L8.33333 36.3149C7.41667 36.3149 6.63194 35.9886 5.97917 35.3358C5.32639 34.683 5 33.8983 5 32.9816L5 19.6483C5 18.7316 5.32639 17.9469 5.97917 17.2941C6.63195 16.6413 7.41667 16.3149 8.33334 16.3149L31.6667 16.3149ZM28.3333 19.6483L11.6667 19.6483C11.6667 20.5649 11.3403 21.3497 10.6875 22.0024C10.0347 22.6552 9.25 22.9816 8.33334 22.9816L8.33333 29.6483C9.25 29.6483 10.0347 29.9747 10.6875 30.6274C11.3403 31.2802 11.6667 32.0649 11.6667 32.9816L28.3333 32.9816C28.3333 32.0649 28.6597 31.2802 29.3125 30.6274C29.9653 29.9747 30.75 29.6483 31.6667 29.6483L31.6667 22.9816C30.75 22.9816 29.9653 22.6552 29.3125 22.0024C28.6597 21.3497 28.3333 20.5649 28.3333 19.6483ZM21.6667 9.31494L23.1667 10.8149C23.4722 11.1205 23.8611 11.2733 24.3333 11.2733C24.8056 11.2733 25.1944 11.1205 25.5 10.8149C25.8056 10.5094 25.9583 10.1205 25.9583 9.64827C25.9583 9.17605 25.8056 8.78716 25.5 8.48161L21.1667 4.14827C21 3.98161 20.8194 3.86355 20.625 3.79411C20.4306 3.72466 20.2222 3.68994 20 3.68994C19.7778 3.68994 19.5694 3.72466 19.375 3.79411C19.1806 3.86355 19 3.98161 18.8333 4.14827L14.5 8.48161C14.1944 8.78716 14.0417 9.17605 14.0417 9.64827C14.0417 10.1205 14.1944 10.5094 14.5 10.8149C14.8056 11.1205 15.1944 11.2733 15.6667 11.2733C16.1389 11.2733 16.5278 11.1205 16.8333 10.8149L18.3333 9.31494L18.3333 12.9816C18.3333 13.4538 18.4931 13.8497 18.8125 14.1691C19.1319 14.4886 19.5278 14.6483 20 14.6483C20.4722 14.6483 20.8681 14.4886 21.1875 14.1691C21.5069 13.8497 21.6667 13.4538 21.6667 12.9816L21.6667 9.31494Z" fill="#181818"/>
</g>
</svg>
