<svg width="40" height="40" viewBox="0 0 40 40" fill="none" xmlns="http://www.w3.org/2000/svg">
<mask id="mask0_4317_66068" style="mask-type:alpha" maskUnits="userSpaceOnUse" x="0" y="0" width="40" height="40">
<rect width="40" height="40" fill="#D9D9D9"/>
</mask>
<g mask="url(#mask0_4317_66068)">
<path d="M20 21.6667C21.3889 21.6667 22.5694 22.1529 23.5417 23.1251C24.5139 24.0973 25 25.2779 25 26.6667C25 28.0556 24.5139 29.2362 23.5417 30.2084C22.5694 31.1806 21.3889 31.6667 20 31.6667C18.6111 31.6667 17.4306 31.1806 16.4583 30.2084C15.4861 29.2362 15 28.0556 15 26.6667C15 25.2779 15.4861 24.0973 16.4583 23.1251C17.4306 22.1529 18.6111 21.6667 20 21.6667ZM31.6667 16.6667C32.5833 16.6667 33.3681 16.9931 34.0208 17.6459C34.6736 18.2987 35 19.0834 35 20.0001L35 33.3334C35 34.2501 34.6736 35.0348 34.0208 35.6876C33.3681 36.3404 32.5833 36.6667 31.6667 36.6667L8.33333 36.6667C7.41667 36.6667 6.63194 36.3404 5.97917 35.6876C5.32639 35.0348 5 34.2501 5 33.3334L5 20.0001C5 19.0834 5.32639 18.2987 5.97917 17.6459C6.63195 16.9931 7.41667 16.6667 8.33334 16.6667L31.6667 16.6667ZM28.3333 20.0001L11.6667 20.0001C11.6667 20.9167 11.3403 21.7015 10.6875 22.3542C10.0347 23.007 9.25 23.3334 8.33334 23.3334L8.33333 30.0001C9.25 30.0001 10.0347 30.3265 10.6875 30.9792C11.3403 31.632 11.6667 32.4167 11.6667 33.3334L28.3333 33.3334C28.3333 32.4167 28.6597 31.632 29.3125 30.9792C29.9653 30.3265 30.75 30.0001 31.6667 30.0001L31.6667 23.3334C30.75 23.3334 29.9653 23.007 29.3125 22.3542C28.6597 21.7015 28.3333 20.9167 28.3333 20.0001ZM20 3.33341L13.3333 10.0001L15.6667 12.3334L18.3333 9.66675L18.3333 15.0001L21.6667 15.0001L21.6667 9.66675L24.3333 12.3334L26.6667 10.0001L20 3.33341Z" fill="#181818"/>
</g>
</svg>
