<svg width="40" height="40" viewBox="0 0 40 40" fill="none" xmlns="http://www.w3.org/2000/svg">
<mask id="mask0_5988_352" style="mask-type:alpha" maskUnits="userSpaceOnUse" x="0" y="0" width="40" height="40">
<rect width="40" height="40" fill="#D9D9D9"/>
</mask>
<g mask="url(#mask0_5988_352)">
<path d="M19 8C19 7.44772 19.4477 7 20 7C20.5523 7 21 7.44772 21 8V14C21 14.5523 20.5523 15 20 15C19.4477 15 19 14.5523 19 14V8Z" fill="#181818"/>
<path d="M19 26C19 25.4477 19.4477 25 20 25C20.5523 25 21 25.4477 21 26V32C21 32.5523 20.5523 33 20 33C19.4477 33 19 32.5523 19 32V26Z" fill="#181818"/>
<path d="M32 19C32.5523 19 33 19.4477 33 20C33 20.5523 32.5523 21 32 21H26C25.4477 21 25 20.5523 25 20C25 19.4477 25.4477 19 26 19H32Z" fill="#181818"/>
<path d="M14 19C14.5523 19 15 19.4477 15 20C15 20.5523 14.5523 21 14 21H8C7.44772 21 7 20.5523 7 20C7 19.4477 7.44772 19 8 19H14Z" fill="#181818"/>
<path d="M29.1924 27.7782C29.5829 28.1687 29.5829 28.8019 29.1924 29.1924C28.8019 29.5829 28.1687 29.5829 27.7782 29.1924L23.5355 24.9497C23.145 24.5592 23.145 23.9261 23.5355 23.5355C23.9261 23.145 24.5592 23.145 24.9497 23.5355L29.1924 27.7782Z" fill="#181818"/>
<path d="M16.4645 15.0503C16.855 15.4408 16.855 16.0739 16.4645 16.4645C16.0739 16.855 15.4408 16.855 15.0503 16.4645L10.8076 12.2218C10.4171 11.8313 10.4171 11.1981 10.8076 10.8076C11.1981 10.4171 11.8313 10.4171 12.2218 10.8076L16.4645 15.0503Z" fill="#181818"/>
<path d="M27.7781 10.8076C28.1686 10.4171 28.8018 10.4171 29.1923 10.8076C29.5828 11.1981 29.5828 11.8313 29.1923 12.2218L24.9497 16.4644C24.5591 16.855 23.926 16.855 23.5355 16.4644C23.1449 16.0739 23.1449 15.4407 23.5355 15.0502L27.7781 10.8076Z" fill="#181818"/>
<path d="M15.0501 23.5356C15.4406 23.1451 16.0738 23.1451 16.4643 23.5356C16.8548 23.9261 16.8548 24.5593 16.4643 24.9498L12.2216 29.1925C11.8311 29.583 11.198 29.583 10.8074 29.1925C10.4169 28.8019 10.4169 28.1688 10.8074 27.7782L15.0501 23.5356Z" fill="#181818"/>
</g>
</svg>
