<svg width="40" height="40" viewBox="0 0 40 40" fill="none" xmlns="http://www.w3.org/2000/svg">
<mask id="mask0_5553_37660" style="mask-type:alpha" maskUnits="userSpaceOnUse" x="0" y="0" width="40" height="40">
<rect width="40" height="40" fill="#D9D9D9"/>
</mask>
<g mask="url(#mask0_5553_37660)">
<path d="M24.333 3.08378C24.7219 2.91711 25.1111 2.89628 25.5 3.02128C25.8886 3.14627 26.1939 3.38901 26.416 3.74979L28.833 7.83378L33.416 8.83378C33.8326 8.9171 34.166 9.13215 34.416 9.47928C34.666 9.82642 34.7635 10.2082 34.708 10.6248L34.25 15.3338L37.375 18.9168C37.6526 19.2222 37.7909 19.5833 37.791 19.9998C37.791 20.4165 37.6528 20.7782 37.375 21.0838L36.0996 22.5447C35.1659 21.8542 34.0638 21.3784 32.8662 21.1902L33.916 19.9998L30.833 16.4168L31.25 11.7498L26.666 10.7498L24.25 6.74979L20 8.58378L15.666 6.74979L13.333 10.7498L8.75 11.7498L9.16602 16.4168L6.08301 19.9998L9.16602 23.4998L8.75 28.2498L13.333 29.2498L15.75 33.2498L20 31.4168L24.333 33.2498L25.1377 31.8689C25.6827 32.9269 26.4754 33.8353 27.4395 34.5193L26.416 36.2498C26.1938 36.6108 25.8888 36.8543 25.5 36.9793C25.1111 37.1043 24.7219 37.0834 24.333 36.9168L20 35.0838L15.666 36.9168C15.2773 37.0833 14.8887 37.1041 14.5 36.9793C14.1111 36.8543 13.8052 36.6109 13.583 36.2498L11.166 32.1668L6.58301 31.1668C6.16643 31.0835 5.83299 30.8684 5.58301 30.5213C5.33301 30.1741 5.23546 29.7915 5.29102 29.3748L5.75 24.6668L2.625 21.0838C2.34722 20.7782 2.20801 20.4165 2.20801 19.9998C2.20808 19.5833 2.34729 19.2223 2.625 18.9168L5.75 15.3338L5.29102 10.6248C5.23556 10.2083 5.33308 9.82641 5.58301 9.47928C5.83299 9.13208 6.16637 8.91712 6.58301 8.83378L11.166 7.83378L13.583 3.74979C13.8052 3.3888 14.1112 3.14625 14.5 3.02128C14.8888 2.89636 15.2772 2.9172 15.666 3.08378L20 4.91678L24.333 3.08378Z" fill="#181818"/>
<path d="M31.704 34.8779C31.309 34.8779 30.9795 34.7449 30.7157 34.4787C30.4518 34.2124 30.3198 33.8825 30.3198 33.4892V29.8779H26.7086C26.3152 29.8779 25.9854 29.7443 25.719 29.4771C25.4529 29.2101 25.3198 28.8792 25.3198 28.4842C25.3198 28.0892 25.4529 27.7597 25.719 27.4958C25.9854 27.2319 26.3152 27.1 26.7086 27.1H30.3198V23.4892C30.3198 23.0956 30.4534 22.7657 30.7207 22.4996C30.9876 22.2332 31.3186 22.1 31.7136 22.1C32.1086 22.1 32.438 22.2332 32.7019 22.4996C32.9658 22.7657 33.0977 23.0956 33.0977 23.4892V27.1H36.7086C37.1022 27.1 37.432 27.2336 37.6982 27.5008C37.9645 27.7681 38.0977 28.099 38.0977 28.4937C38.0977 28.8887 37.9645 29.2182 37.6982 29.4821C37.432 29.746 37.1022 29.8779 36.7086 29.8779H33.0977V33.4892C33.0977 33.8825 32.9641 34.2124 32.6969 34.4787C32.4297 34.7449 32.0987 34.8779 31.704 34.8779Z" fill="#181818"/>
</g>
</svg>
