<svg width="40" height="40" viewBox="0 0 40 40" fill="none" xmlns="http://www.w3.org/2000/svg">
<mask id="mask0_1072_14961" style="mask-type:alpha" maskUnits="userSpaceOnUse" x="0" y="0" width="40" height="40">
<rect width="40" height="40" fill="#D9D9D9"/>
</mask>
<g mask="url(#mask0_1072_14961)">
<path d="M13.583 36.2502L11.1663 32.1669L6.58301 31.1669C6.16634 31.0835 5.83301 30.8683 5.58301 30.521C5.33301 30.1738 5.23579 29.7919 5.29134 29.3752L5.74967 24.6669L2.62467 21.0835C2.3469 20.778 2.20801 20.4169 2.20801 20.0002C2.20801 19.5835 2.3469 19.2224 2.62467 18.9169L5.74967 15.3335L5.29134 10.6252C5.23579 10.2085 5.33301 9.82659 5.58301 9.47936C5.83301 9.13214 6.16634 8.91686 6.58301 8.83353L11.1663 7.83353L13.583 3.7502C13.8052 3.38909 14.1108 3.14603 14.4997 3.02103C14.8886 2.89603 15.2775 2.91686 15.6663 3.08353L19.9997 4.91686L24.333 3.08353C24.7219 2.91686 25.1108 2.89603 25.4997 3.02103C25.8886 3.14603 26.1941 3.38909 26.4163 3.7502L28.833 7.83353L33.4163 8.83353C33.833 8.91686 34.1663 9.13214 34.4163 9.47936C34.6663 9.82659 34.7636 10.2085 34.708 10.6252L34.2497 15.3335L37.3747 18.9169C37.6525 19.2224 37.7913 19.5835 37.7913 20.0002C37.7913 20.4169 37.6525 20.778 37.3747 21.0835L34.2497 24.6669L34.708 29.3752C34.7636 29.7919 34.6663 30.1738 34.4163 30.521C34.1663 30.8683 33.833 31.0835 33.4163 31.1669L28.833 32.1669L26.4163 36.2502C26.1941 36.6113 25.8886 36.8544 25.4997 36.9794C25.1108 37.1044 24.7219 37.0835 24.333 36.9169L19.9997 35.0835L15.6663 36.9169C15.2775 37.0835 14.8886 37.1044 14.4997 36.9794C14.1108 36.8544 13.8052 36.6113 13.583 36.2502ZM15.7497 33.2502L19.9997 31.4169L24.333 33.2502L26.6663 29.2502L31.2497 28.1669L30.833 23.5002L33.9163 20.0002L30.833 16.4169L31.2497 11.7502L26.6663 10.7502L24.2497 6.7502L19.9997 8.58353L15.6663 6.7502L13.333 10.7502L8.74967 11.7502L9.16634 16.4169L6.08301 20.0002L9.16634 23.5002L8.74967 28.2502L13.333 29.2502L15.7497 33.2502Z" fill="#181818"/>
</g>
</svg>
